<?xml version="1.0" encoding="UTF-8"?>
<svg width="48px" height="48px" viewBox="0 0 48 48" version="1.1" xmlns="http://www.w3.org/2000/svg" xmlns:xlink="http://www.w3.org/1999/xlink" style="background: #DFE1E5;">
    <defs>
        <path d="M24,0.666666667 C11.12,0.666666667 0.666666667,11.12 0.666666667,24 C0.666666667,36.88 11.12,47.3333333 24,47.3333333 C36.88,47.3333333 47.3333333,36.88 47.3333333,24 C47.3333333,11.12 36.88,0.666666667 24,0.666666667 Z" id="path-1"></path>
    </defs>
    <g id="ic_account_circle-square" stroke="none" stroke-width="1" fill="none" fill-rule="evenodd">
        <g id="ic_account_circle_24px">
            <mask id="mask-2" fill="white">
                <use xlink:href="#path-1"></use>
            </mask>
            <use id="Shape" fill="#DFE1E5" fill-rule="nonzero" xlink:href="#path-1"></use>
            <path d="M24,7.66666667 C27.8733333,7.66666667 31,10.7933333 31,14.6666667 C31,18.54 27.8733333,21.6666667 24,21.6666667 C20.1266667,21.6666667 17,18.54 17,14.6666667 C17,10.7933333 20.1266667,7.66666667 24,7.66666667 Z" id="Path" fill="#FFFFFF" mask="url(#mask-2)"></path>
            <path d="M24,40.8 C18.1666667,40.8 13.01,37.8133333 10,33.2866667 C10.07,28.6433333 19.3333333,26.1 24,26.1 C28.6433333,26.1 37.93,28.6433333 38,33.2866667 C34.99,37.8133333 29.8333333,40.8 24,40.8 Z" id="Path" fill="#FFFFFF" mask="url(#mask-2)"></path>
        </g>
    </g>
</svg>
